<svg width="24" height="24" fill="none" xmlns="http://www.w3.org/2000/svg"><path fill-rule="evenodd" clip-rule="evenodd" d="M2.618 6.678A.5.5 0 013 6.5h3.52a.5.5 0 01.494.42c.144.882.62 2.586 1.74 4.187a.5.5 0 01-.82.573A11.917 11.917 0 016.107 7.5h-2.49c.43 1.738 1.606 4.69 3.38 6.92.972 1.222 2.029 2.006 2.942 2.478.929.479 1.675.619 2.023.6a.54.54 0 01.039 0 .788.788 0 00.505-.16c.127-.103.28-.315.28-.792v-1.52c0-.294.116-.59.36-.78.26-.2.598-.229.9-.088a18.677 18.677 0 01.95.482c1.138.746 2.233 1.944 2.928 2.833a.09.09 0 00.024.022l.011.003h2.516l.01-.001h.002a.032.032 0 00.009-.014.045.045 0 00.004-.023c0-.006-.003-.016-.015-.03a90.582 90.582 0 00-2.179-2.495l-.716-.803c-.5-.565-.535-1.393-.15-2.013.842-1.358 1.95-3.307 2.293-4.619H17.69s-.007 0-.02.008a.132.132 0 00-.041.055c-.713 1.608-2.215 3.593-3.307 4.59-.306.278-.717.323-1.05.13-.311-.18-.485-.524-.485-.89V7.5h-2.671c.036.067.07.135.105.205.202.416.388.935.388 1.436l.003.917c.006.988.013 2.347-.004 3.087a.5.5 0 11-1-.022c.017-.725.01-2.05.004-3.036L9.61 9.14c0-.279-.111-.637-.288-.999a4.177 4.177 0 00-.516-.817.5.5 0 01.38-.825h4.102a.5.5 0 01.5.5v4.283c.987-.95 2.305-2.72 2.928-4.125.163-.368.525-.658.976-.658h2.048c.62 0 1.137.573.965 1.237-.382 1.483-1.581 3.565-2.415 4.91a.7.7 0 00.05.822c.208.235.446.501.7.784.726.813 1.578 1.766 2.217 2.54.548.664.117 1.705-.781 1.705H17.96c-.332 0-.63-.161-.824-.41-.663-.849-1.671-1.94-2.67-2.6a18.864 18.864 0 00-.678-.347v1.405c0 .723-.25 1.242-.65 1.568a1.784 1.784 0 01-1.142.384c-.587.025-1.505-.19-2.514-.712-1.035-.534-2.203-1.407-3.267-2.744-2.107-2.648-3.41-6.225-3.707-7.957a.5.5 0 01.11-.407zM13.789 15v.002zm-.163.064zm.168-3.63v-.001.002z" fill="#000"/></svg>