<svg width="392.187" height="392.187"><path d="M368.623 17.953H23.568C10.573 17.953 0 28.525 0 41.521v309.145c0 12.996 10.573 23.568 23.568 23.568h345.055c12.992 0 23.563-10.572 23.563-23.568V41.521c.002-12.995-10.569-23.568-23.563-23.568zm-71.062 39.576a8.702 8.702 0 018.701-8.702h8.703a8.7 8.7 0 018.701 8.702v9.863a8.702 8.702 0 01-8.701 8.702h-8.703a8.702 8.702 0 01-8.701-8.702v-9.863zm-40.467 0a8.703 8.703 0 018.703-8.702h8.701a8.702 8.702 0 018.703 8.702v9.863a8.702 8.702 0 01-8.703 8.702h-8.701a8.703 8.703 0 01-8.703-8.702v-9.863zm106.81 288.424H28.283V102.236h335.621v243.717zm.231-278.561a8.703 8.703 0 01-8.703 8.702h-8.7a8.702 8.702 0 01-8.703-8.702v-9.863a8.702 8.702 0 018.703-8.702h8.7a8.703 8.703 0 018.703 8.702v9.863z"/><path d="M108.363 259.589c12.829 10.133 25.927 18.229 38.928 24.051 16.518 7.402 32.938 11.154 48.803 11.154 15.865 0 32.287-3.752 48.803-11.154 13.001-5.82 26.099-13.918 38.929-24.051 21.715-17.149 35.106-34.137 35.666-34.851a7.54 7.54 0 000-9.295c-.56-.714-13.951-17.699-35.666-34.85-12.83-10.133-25.928-18.229-38.929-24.052-16.52-7.401-32.938-11.154-48.803-11.154-15.865 0-32.286 3.753-48.803 11.154-13.001 5.822-26.099 13.919-38.928 24.052-21.716 17.15-35.109 34.136-35.667 34.85a7.542 7.542 0 000 9.295c.558.715 13.951 17.701 35.667 34.851zm87.731-82.903c21.843 0 39.548 17.71 39.548 39.548 0 21.845-17.704 39.549-39.548 39.549-21.843 0-39.548-17.704-39.548-39.549 0-21.838 17.705-39.548 39.548-39.548z"/></svg>